<svg width="150" height="38" viewBox="0 0 150 38" fill="none" xmlns="http://www.w3.org/2000/svg">
<g clip-path="url(#clip0)">
<path d="M28.296 7.32543C28.3641 7.02304 28.4926 6.74333 28.6665 6.4863C28.8403 6.22927 29.0596 5.99492 29.3317 5.7908C29.6039 5.57913 29.8911 5.42794 30.1935 5.3221C30.4959 5.21626 30.8134 5.16335 31.1461 5.16335C31.4409 5.16335 31.7055 5.2087 31.9474 5.29186C32.1893 5.37502 32.4085 5.50353 32.59 5.67741C32.7714 5.84372 32.915 6.04027 33.0057 6.25951C33.0965 6.47118 33.1418 6.70553 33.1418 6.96256C33.1418 7.02304 33.1343 7.09107 33.1267 7.17423C33.1191 7.24983 33.104 7.33299 33.0813 7.4237C33.0057 7.72609 32.8848 8.0058 32.7109 8.26283C32.537 8.51986 32.3178 8.75421 32.0457 8.95833C31.7735 9.17 31.4862 9.32119 31.1839 9.42703C30.8815 9.53287 30.564 9.58578 30.2313 9.58578C29.9365 9.58578 29.6719 9.54042 29.43 9.45727C29.1881 9.37411 28.9689 9.2456 28.7874 9.07172C28.606 8.89785 28.4624 8.70886 28.3716 8.49718C28.2809 8.28551 28.2356 8.05116 28.2356 7.79413C28.2356 7.73365 28.2431 7.66561 28.2507 7.58246C28.2658 7.50686 28.2809 7.4237 28.296 7.32543ZM3.49259 7.5371C3.52283 7.40858 3.54551 7.28007 3.58331 7.16667C3.62111 7.04572 3.65891 6.93232 3.6967 6.82648C3.74206 6.71309 3.78742 6.60725 3.8479 6.50142C3.90082 6.39558 3.96129 6.30486 4.02177 6.21415C4.08225 6.13099 4.14273 6.05539 4.21077 5.9798C4.2788 5.9042 4.34684 5.8286 4.41488 5.76056C4.48292 5.69253 4.55851 5.63205 4.63411 5.57157L4.66435 5.54889L4.65679 5.53377L4.86846 5.3977C4.94406 5.35234 5.02722 5.30698 5.11037 5.26162C5.19353 5.22382 5.28425 5.18603 5.3674 5.15579C5.45056 5.12555 5.53372 5.09531 5.62443 5.06507C5.71515 5.03483 5.80587 5.01215 5.89658 4.98947C5.97218 4.97435 6.0629 4.95923 6.15361 4.94411C6.23677 4.92899 6.32749 4.92144 6.41064 4.91388C6.50136 4.89876 6.58452 4.8912 6.67523 4.8912C6.76595 4.88364 6.85667 4.88364 6.93227 4.88364H8.2779C8.68612 4.88364 9.04899 4.92899 9.35138 5.02727C9.66888 5.12555 9.93347 5.27674 10.1451 5.48085C10.251 5.57913 10.3493 5.70765 10.4324 5.84372C10.5156 5.9798 10.5836 6.13099 10.6441 6.2973C10.7046 6.45606 10.7499 6.62993 10.7877 6.81137C10.8255 6.9928 10.8558 7.19691 10.8784 7.40858L12.0502 18.9069L18.0299 7.25739L18.0375 7.24983L18.0451 7.24227C18.1509 7.03816 18.2643 6.84916 18.3777 6.67529C18.4911 6.50142 18.6045 6.3351 18.7254 6.19147C18.8464 6.04027 18.9673 5.9042 19.0959 5.78324C19.2244 5.66229 19.3529 5.54889 19.4814 5.45818C19.6175 5.3599 19.7611 5.27674 19.9123 5.2087C20.0635 5.14067 20.2223 5.08019 20.3961 5.03483C20.57 4.98947 20.7439 4.95167 20.9253 4.92899C21.1067 4.90632 21.2957 4.89876 21.4923 4.89876H22.785C22.9135 4.89876 23.0647 4.90632 23.2159 4.92144C23.2915 4.92899 23.3595 4.93655 23.4276 4.94411C23.4956 4.95167 23.5712 4.96679 23.6393 4.98191C23.7148 4.99703 23.7904 5.01215 23.866 5.03483C23.9416 5.05751 24.0097 5.08019 24.0777 5.10287C24.1458 5.12555 24.2138 5.15579 24.2818 5.19358C24.3499 5.22382 24.4103 5.26162 24.4784 5.29942C24.5464 5.34478 24.6069 5.38258 24.6674 5.4355C24.7279 5.48085 24.7808 5.53377 24.8337 5.58669C24.8866 5.63961 24.9395 5.70009 24.9849 5.76056C25.0302 5.82104 25.0756 5.88908 25.1134 5.94956C25.1966 6.09319 25.257 6.25195 25.3024 6.42582C25.3402 6.59213 25.3629 6.78113 25.3629 6.97768C25.3629 7.0306 25.3629 7.09863 25.3553 7.16667C25.3477 7.23471 25.3477 7.29519 25.3402 7.36322C25.3326 7.41614 25.3251 7.48418 25.3099 7.55978C25.2948 7.63537 25.2797 7.69585 25.2646 7.76389L21.8476 24.1609L21.84 24.1912C21.8098 24.3575 21.7644 24.5162 21.7115 24.675C21.6586 24.8337 21.5981 24.9849 21.5225 25.1361C21.4469 25.2873 21.3638 25.431 21.2731 25.567C21.1823 25.7031 21.0765 25.8392 20.9631 25.9677C20.8346 26.1113 20.6985 26.2398 20.5473 26.3457C20.3961 26.4515 20.2298 26.5422 20.0484 26.6103C19.8745 26.6783 19.6855 26.7312 19.4965 26.769C19.3 26.7993 19.0959 26.8219 18.8842 26.8219C18.5213 26.8219 18.2038 26.769 17.9317 26.6632C17.6444 26.5498 17.4176 26.391 17.2437 26.1643C17.1606 26.066 17.0925 25.9526 17.0321 25.8467C16.9716 25.7333 16.9187 25.6124 16.8809 25.4914C16.8431 25.3705 16.8128 25.242 16.7901 25.1135C16.7675 24.9849 16.7599 24.8564 16.7599 24.7203V24.6447C16.7599 24.6145 16.7599 24.5843 16.7599 24.554C16.7599 24.5087 16.7675 24.4784 16.7675 24.4558C16.7675 24.4104 16.775 24.3877 16.775 24.3726C16.775 24.3499 16.7826 24.3197 16.7826 24.2819C16.7826 24.2592 16.7901 24.229 16.7977 24.1836C16.8053 24.1458 16.8053 24.1156 16.8128 24.0929C16.8204 24.0551 16.8204 24.0248 16.8279 24.0097L16.8355 23.9795V23.9719L18.801 14.5525L13.1766 25.2117C13.0254 25.4914 12.8591 25.7333 12.6701 25.9375C12.4735 26.1491 12.2694 26.3154 12.0351 26.4364C11.9217 26.4969 11.8083 26.5498 11.6873 26.5952C11.5739 26.6405 11.4454 26.6783 11.3169 26.7086C11.1884 26.7388 11.0523 26.7615 10.9238 26.7766C10.7877 26.7917 10.6516 26.7993 10.5156 26.7993C10.2283 26.7993 9.96371 26.769 9.72936 26.701C9.48745 26.633 9.26822 26.5347 9.07923 26.3986C8.87511 26.255 8.71636 26.066 8.5954 25.8316C8.48201 25.6048 8.40641 25.3402 8.36861 25.0303V25.0152L7.15906 14.3257L5.09525 24.1382V24.1534C5.06501 24.3197 5.01966 24.4784 4.96674 24.6372C4.90626 24.7959 4.84578 24.9471 4.77018 25.0983C4.69459 25.2495 4.61143 25.3932 4.52071 25.5292C4.43 25.6653 4.32416 25.8014 4.21077 25.9299C4.08225 26.0735 3.94617 26.202 3.79498 26.3079C3.64379 26.4137 3.47747 26.5044 3.29604 26.5725C3.12217 26.6405 2.93317 26.6934 2.74418 26.7312C2.54763 26.7615 2.34351 26.7841 2.13184 26.7841C1.76897 26.7841 1.45147 26.7312 1.17932 26.6254C0.899607 26.512 0.665256 26.3532 0.491382 26.1265C0.408225 26.0282 0.340187 25.9148 0.27971 25.8089C0.219232 25.6955 0.166314 25.5746 0.128515 25.4536C0.0907167 25.3327 0.0604778 25.2042 0.0377986 25.0757C0.00755972 24.9547 0 24.8186 0 24.6825C0 24.6825 0 24.6523 0 24.6069C0 24.5767 0 24.5465 0 24.5162C0 24.4784 0 24.4406 0.00755972 24.4255C0.00755972 24.3802 0.0151194 24.3499 0.0151194 24.3424C0.0151194 24.3197 0.0226792 24.2894 0.0226792 24.2516C0.0226792 24.229 0.0302389 24.1987 0.0377986 24.1534C0.0453583 24.1156 0.0453583 24.0853 0.0529181 24.0626C0.0604778 24.04 0.0604778 24.0097 0.0680375 23.9795L0.0755972 23.9493L3.46991 7.67317L3.49259 7.5371ZM26.6178 12.8894C26.6783 12.6021 26.769 12.3224 26.8975 12.0654C27.026 11.8083 27.1848 11.5664 27.3813 11.3472C27.593 11.1128 27.8651 10.9314 28.1902 10.818C28.5077 10.7046 28.8857 10.6517 29.309 10.6517C29.6568 10.6517 29.9592 10.6895 30.2086 10.7651C30.4732 10.8483 30.6849 10.9692 30.8361 11.1431C30.9797 11.3018 31.0856 11.4833 31.1536 11.6798C31.2217 11.8764 31.2594 12.088 31.2594 12.3224C31.2594 12.4207 31.2519 12.5341 31.2368 12.6475C31.2217 12.7609 31.199 12.8818 31.1687 12.9952L28.8101 24.3121C28.7496 24.5994 28.6589 24.8791 28.5304 25.1361C28.4019 25.3932 28.2431 25.6351 28.0466 25.8543C27.8349 26.0887 27.5627 26.2701 27.2377 26.3835C26.9202 26.4969 26.5422 26.5498 26.1188 26.5498C25.7711 26.5498 25.4687 26.512 25.2192 26.4364C24.9546 26.3532 24.743 26.2323 24.5918 26.0584C24.4481 25.8997 24.3423 25.7182 24.2743 25.5217C24.2062 25.3251 24.1684 25.1135 24.1684 24.8791C24.1684 24.7808 24.176 24.6674 24.1911 24.554C24.2062 24.4406 24.2289 24.3272 24.2591 24.2063L26.6178 12.8894Z" fill="white"/>
<path d="M53.2508 21.1445C52.8879 22.717 51.6708 23.7829 50.0908 23.7829C49.1307 23.7829 48.7905 23.1781 48.7452 22.339C48.6318 20.2374 51.7615 19.4285 53.5456 19.7157C53.4927 20.0181 53.3642 20.6531 53.2508 21.1445ZM53.3037 10.7802C51.9958 10.7802 50.4763 10.8784 49.3877 11.3622C48.5713 11.7251 47.8758 12.156 47.717 13.1463C47.649 13.6075 47.6263 13.9855 47.9287 14.371C48.216 14.7414 48.7527 14.9531 49.2441 14.9531C50.0983 14.9531 50.7409 14.7717 51.444 14.5298C51.8976 14.3786 53.6061 13.9401 54.1882 14.6129C54.4754 14.9531 54.4225 15.4067 54.2713 16.1854C45.744 16.3517 44.4739 21.1143 45.177 24.0323C45.7742 26.4817 48.2311 27.0184 49.8791 27.0184C54.5132 27.0184 56.0781 24.2743 56.9097 20.7741C56.9097 20.7741 57.6505 16.7297 57.9983 14.938C58.3309 13.1993 57.9907 10.7802 53.3037 10.7802Z" fill="white"/>
<path d="M99.9924 21.0614C99.6296 22.6338 98.4124 23.6997 96.8324 23.6997C95.8724 23.6997 95.5322 23.0949 95.4868 22.2558C95.3734 20.1542 98.5032 19.3453 100.287 19.6326C100.234 19.9274 100.106 20.5624 99.9924 21.0614ZM100.045 10.7802C98.7375 10.7802 97.218 10.8784 96.1294 11.3622C95.3129 11.7251 94.6174 12.156 94.4587 13.1463C94.3831 13.5999 94.3604 13.9855 94.6628 14.371C94.9501 14.7414 95.4868 14.9531 95.9782 14.9531C96.8324 14.9531 97.475 14.7717 98.1781 14.5298C98.6317 14.3786 100.34 13.9401 100.922 14.6129C101.21 14.9531 101.157 15.4067 101.005 16.1854C92.478 16.3517 91.208 21.1143 91.9111 24.0323C92.5007 26.4817 94.9652 27.0184 96.6132 27.0184C101.247 27.0184 102.805 24.2743 103.636 20.7741C103.636 20.7741 104.377 16.7297 104.725 14.938C105.073 13.1993 104.74 10.7802 100.045 10.7802Z" fill="white"/>
<path d="M69.8518 11.0976H65.1496C61.6495 11.1354 59.7595 13.3731 59.2152 16.3592L57.5294 25.2267C57.2421 26.6782 57.8318 26.905 58.55 26.905C58.6634 26.905 58.7163 26.905 58.9053 26.905C60.2963 26.905 61.5436 25.8164 61.9443 24.0852C61.9972 23.8508 63.2899 16.8732 63.2899 16.8732C63.5394 15.6637 64.1366 14.8245 65.3991 14.8245C65.4066 14.8245 67.8106 14.817 67.8711 14.817C69.6552 14.817 70.1315 13.5394 70.1315 13.5394L70.4565 12.8137C70.9479 11.5134 70.5699 11.0976 69.8518 11.0976Z" fill="white"/>
<path d="M49.297 3.00866C49.297 3.00866 44.8368 3.0011 44.6705 3.0011C40.8679 3.0011 38.2976 5.30681 37.9574 8.17951L37.4207 10.6667L33.6635 10.7725C32.6354 10.6893 31.7736 15.0815 32.9756 14.6733C34.5405 14.6733 36.695 14.6733 36.695 14.6733L34.6916 25.1964C34.4044 26.6479 34.994 26.8747 35.7122 26.8747C35.8256 26.8747 35.8785 26.8747 36.0675 26.8747C37.4585 26.8747 38.6983 25.7937 39.099 24.0625C39.1443 23.8584 40.1498 18.438 40.3917 17.1378C40.5429 16.3818 40.8679 14.6733 40.8679 14.6733C40.8679 14.6733 44.2169 14.6657 44.3152 14.6657C46.0993 14.6657 46.568 13.3882 46.568 13.3882L46.893 12.67C47.392 11.3697 47.014 10.6818 46.2958 10.6818L41.6239 10.6969L42.0851 8.45166C42.1682 7.64277 43.0527 6.74316 43.9599 6.74316C44.9729 6.74316 46.4773 6.74316 47.2559 6.74316C49.04 6.74316 49.5163 5.46557 49.5163 5.46557L49.8413 4.74739C50.3252 3.432 50.0152 3.00866 49.297 3.00866Z" fill="white"/>
<path d="M110.13 23.9567H110.138C110.107 23.9567 110.085 23.9567 110.054 23.9492C110.085 23.9492 110.107 23.9567 110.13 23.9567Z" fill="white"/>
<path d="M141.367 22.4977L135.78 22.5884C134.979 22.5884 134.48 21.9307 134.722 21.2201L137.39 12.6322H137.383L128.145 12.6247C127.396 12.6322 126.928 11.7931 127.17 11.0371L128.999 5.44295C128.999 5.44295 130.118 2.42662 133.096 1.53458H132.718C132.718 1.53458 127.623 1.66309 126.217 6.19892C125.96 7.01537 124.236 12.6247 124.236 12.6247C124.236 12.6247 118.347 12.6171 117.523 12.6171H117.516C112.768 12.6171 111.067 17.2134 111.067 17.2134L110.735 18.2189C112.405 15.2026 116.132 15.1118 116.132 15.1118L122.021 15.1194C122.823 15.1194 123.269 15.762 123.027 16.4726L120.343 25.136L129.354 25.1436C130.11 25.136 130.579 25.8164 130.33 26.5724L128.5 32.1666C128.5 32.1666 127.472 35.0317 124.766 36.0901C125.121 36.0825 130.148 35.9011 131.509 31.524C131.758 30.7227 133.482 25.1814 133.482 25.1814C133.482 25.1814 139.122 25.1889 139.938 25.1889H139.946C144.693 25.1889 146.402 20.4188 146.402 20.4188L146.462 20.2373C144.595 22.475 141.367 22.4977 141.367 22.4977Z" fill="#79B827"/>
<path d="M148.503 13.8645C148.503 13.8796 148.503 13.9023 148.503 13.9174C148.503 13.9552 148.496 13.9855 148.488 14.0233C148.488 14.0384 148.48 14.0535 148.48 14.0686C148.473 14.1216 148.458 14.1745 148.435 14.2274L146.47 20.2374L146.409 20.4188C146.409 20.4188 144.708 25.189 139.953 25.189H139.946C139.129 25.189 133.49 25.1814 133.49 25.1814C133.49 25.1814 131.766 30.7227 131.516 31.524C130.163 35.9011 125.128 36.0825 124.781 36.0901C124.766 36.0901 124.758 36.0901 124.758 36.0901L118.574 36.1884C117.69 36.1884 117.138 35.4626 117.402 34.6764L120.358 25.1663L110.13 25.1587H110.122C110.1 25.1587 110.077 25.1587 110.054 25.1512C110.032 25.1512 110.001 25.1512 109.979 25.1436C109.956 25.1361 109.933 25.1361 109.903 25.1285C109.881 25.121 109.858 25.1209 109.835 25.1134C109.813 25.1058 109.79 25.0983 109.767 25.0907C109.744 25.0831 109.722 25.0756 109.699 25.068C109.676 25.0605 109.654 25.0454 109.631 25.0302C109.608 25.0227 109.593 25.0076 109.571 25C109.548 24.9849 109.525 24.9698 109.51 24.9546C109.495 24.9395 109.472 24.932 109.457 24.9168C109.435 24.9017 109.419 24.879 109.397 24.8639C109.382 24.8488 109.366 24.8337 109.351 24.8186C109.336 24.7959 109.314 24.7808 109.298 24.7581C109.283 24.743 109.268 24.7278 109.261 24.7127C109.246 24.69 109.23 24.6674 109.215 24.6447C109.208 24.6296 109.193 24.6144 109.185 24.5918C109.17 24.5691 109.162 24.5464 109.147 24.5162C109.14 24.4935 109.125 24.4784 109.117 24.4557C109.102 24.433 109.094 24.4028 109.087 24.3801C109.079 24.3574 109.072 24.3423 109.064 24.3196C109.057 24.2894 109.049 24.2667 109.041 24.2365C109.034 24.2138 109.026 24.1987 109.026 24.176C109.019 24.1457 109.019 24.1155 109.011 24.0853C109.011 24.0626 109.004 24.0475 109.004 24.0248C109.004 23.9945 108.996 23.9643 108.996 23.9341C108.996 23.9114 108.996 23.8887 108.996 23.866C108.996 23.8358 108.996 23.8056 108.996 23.7753C108.996 23.7526 108.996 23.73 109.004 23.7073C109.004 23.677 109.011 23.6468 109.019 23.609C109.019 23.5863 109.026 23.5712 109.026 23.5485C109.034 23.4956 109.049 23.4427 109.072 23.3898L110.773 18.1962L111.098 17.1908C111.098 17.1908 112.799 12.5945 117.546 12.5945H117.554C118.378 12.5945 124.267 12.602 124.267 12.602C124.267 12.602 125.99 7.0003 126.247 6.17629C127.653 1.64046 132.749 1.51194 132.749 1.51194H133.127L139.265 1.5195C140.15 1.5195 140.649 2.23011 140.376 3.02388L137.405 12.6172H137.413L147.384 12.6247H147.392C147.415 12.6247 147.437 12.6247 147.46 12.6323C147.483 12.6323 147.513 12.6323 147.536 12.6398C147.558 12.6398 147.581 12.6474 147.604 12.6474C147.626 12.655 147.656 12.655 147.679 12.6625C147.702 12.6701 147.724 12.6776 147.74 12.6776C147.762 12.6852 147.785 12.6928 147.815 12.7003C147.838 12.7079 147.853 12.7154 147.876 12.723C147.898 12.7306 147.921 12.7381 147.944 12.7532C147.959 12.7608 147.982 12.7759 147.997 12.7835C148.019 12.7986 148.042 12.8062 148.057 12.8213C148.072 12.8288 148.087 12.844 148.102 12.8591C148.125 12.8742 148.14 12.8893 148.163 12.9044C148.178 12.9196 148.193 12.9347 148.208 12.9498C148.223 12.9649 148.239 12.98 148.254 13.0027C148.269 13.0178 148.276 13.033 148.291 13.0556C148.307 13.0708 148.322 13.0934 148.329 13.1086C148.344 13.1237 148.352 13.1463 148.36 13.169C148.367 13.1917 148.382 13.2068 148.39 13.2295C148.397 13.2522 148.412 13.2749 148.42 13.29C148.428 13.3127 148.435 13.3278 148.443 13.3505C148.45 13.3731 148.458 13.3958 148.465 13.4185C148.473 13.4412 148.48 13.4563 148.48 13.479C148.488 13.5017 148.488 13.5319 148.496 13.5546C148.496 13.5773 148.503 13.5924 148.503 13.6151C148.511 13.6453 148.511 13.668 148.511 13.6982C148.511 13.7209 148.511 13.736 148.511 13.7587C148.511 13.7965 148.511 13.8267 148.503 13.8645ZM149.509 11.8385C149.108 11.1052 148.239 10.765 147.369 10.765H147.362L139.424 10.7575L141.79 3.49259C142.062 2.66102 141.949 1.79921 141.465 1.11883C140.974 0.4309 140.165 0.0302343 139.258 0.0302343L132.741 0.0226746H132.726H132.703C132.545 0.0302343 131.108 0.0831524 129.445 0.763527C127.124 1.72361 125.522 3.43967 124.811 5.73782C124.63 6.32748 123.669 8.97338 123.155 10.6365C121.409 10.6365 118.151 10.6365 117.554 10.629C115.165 10.629 113.048 12.0653 111.423 13.8948C110.251 15.2177 109.744 16.5255 109.692 16.6692L109.684 16.6994L109.676 16.7221L107.65 22.9211C107.356 23.8282 107.507 24.8186 108.051 25.567C108.55 26.2549 109.314 26.648 110.145 26.648H110.153H110.16H118.347L116.004 34.2002C115.732 35.0166 115.853 35.8709 116.337 36.5512C116.843 37.2619 117.667 37.6701 118.597 37.6701H118.612H118.627L124.803 37.5718C125.008 37.5718 126.482 37.534 128.167 36.8914C130.594 35.9691 132.257 34.2607 132.975 31.9474C133.157 31.3653 134.109 28.3036 134.624 26.6631H139.976C142.372 26.6631 144.496 25.6577 146.129 23.7526C147.294 22.3919 147.793 21.0463 147.845 20.8951L147.853 20.8724L147.861 20.8497L149.887 14.2879C150.144 13.4487 149.811 12.3904 149.509 11.8385Z" fill="white"/>
<path d="M128.523 32.1665L130.352 26.5724C130.602 25.8088 130.133 25.136 129.377 25.1436L120.366 25.136L123.05 16.4726C123.292 15.762 122.845 15.1194 122.044 15.1194L116.155 15.1118C116.155 15.1118 112.421 15.2025 110.757 18.2189L109.057 23.4124C109.041 23.4653 109.026 23.5182 109.011 23.5711C109.004 23.5938 109.004 23.6165 109.004 23.6316C108.996 23.6619 108.989 23.6997 108.989 23.7299C108.989 23.7526 108.989 23.7753 108.989 23.7979C108.989 23.8282 108.981 23.8584 108.981 23.8887C108.981 23.9113 108.981 23.934 108.989 23.9491C108.989 23.9794 108.989 24.0096 108.996 24.0398C108.996 24.0625 109.004 24.0852 109.004 24.1003C109.011 24.1306 109.011 24.1608 109.019 24.191C109.026 24.2137 109.034 24.2288 109.034 24.2515C109.041 24.2818 109.049 24.312 109.057 24.3347C109.064 24.3574 109.072 24.3725 109.079 24.3952C109.087 24.4254 109.102 24.4481 109.109 24.4707C109.117 24.4934 109.132 24.5085 109.14 24.5312C109.155 24.5539 109.162 24.5766 109.178 24.6068C109.185 24.6219 109.2 24.6371 109.208 24.6597C109.223 24.6824 109.238 24.7051 109.253 24.7278C109.268 24.7429 109.283 24.758 109.291 24.7731C109.306 24.7958 109.321 24.8185 109.344 24.8336C109.359 24.8487 109.374 24.8639 109.389 24.879C109.412 24.8941 109.427 24.9168 109.45 24.9319C109.465 24.947 109.487 24.9546 109.503 24.9697C109.525 24.9848 109.54 24.9999 109.563 25.015C109.586 25.0302 109.601 25.0377 109.624 25.0453C109.646 25.0604 109.669 25.068 109.692 25.0831C109.714 25.0906 109.737 25.0982 109.752 25.1058C109.775 25.1133 109.797 25.1284 109.82 25.1284C109.843 25.136 109.865 25.136 109.888 25.1436C109.911 25.1511 109.933 25.1511 109.964 25.1587C109.986 25.1587 110.017 25.1587 110.039 25.1662C110.07 25.1662 110.092 25.1738 110.122 25.1738L120.351 25.1814L117.395 34.6915C117.123 35.4777 117.682 36.2034 118.567 36.2034L124.751 36.1052C124.751 36.1052 124.758 36.1052 124.773 36.1052C127.495 35.0392 128.523 32.1665 128.523 32.1665Z" fill="#006E34"/>
<path d="M129.007 5.43538L127.177 11.0296C126.928 11.7855 127.396 12.6247 128.152 12.6171L137.39 12.6247L140.361 3.03138C140.634 2.23761 140.135 1.53456 139.25 1.527L133.112 1.51944C130.126 2.42661 129.007 5.43538 129.007 5.43538Z" fill="#FCE900"/>
<path d="M148.503 13.6226C148.503 13.6 148.496 13.5848 148.496 13.5622C148.488 13.5395 148.488 13.5092 148.481 13.4866C148.473 13.4639 148.465 13.4488 148.465 13.4261C148.458 13.4034 148.45 13.3807 148.443 13.358C148.435 13.3354 148.428 13.3202 148.42 13.2976C148.412 13.2749 148.405 13.2522 148.39 13.2371C148.382 13.2144 148.367 13.1993 148.352 13.1766C148.344 13.1615 148.329 13.1388 148.322 13.1161C148.307 13.101 148.292 13.0783 148.284 13.0632C148.269 13.0481 148.261 13.0254 148.246 13.0103C148.231 12.9952 148.216 12.9801 148.201 12.9574C148.186 12.9423 148.171 12.9271 148.155 12.912C148.14 12.8969 148.118 12.8818 148.095 12.8667C148.08 12.8515 148.065 12.844 148.05 12.8289C148.027 12.8137 148.012 12.8062 147.989 12.7911C147.974 12.7835 147.951 12.7684 147.936 12.7608C147.914 12.7533 147.891 12.7382 147.868 12.7306C147.845 12.723 147.83 12.7155 147.808 12.7079C147.785 12.7004 147.762 12.6928 147.732 12.6852C147.709 12.6777 147.687 12.6701 147.672 12.6701C147.649 12.6626 147.619 12.6626 147.596 12.655C147.573 12.655 147.551 12.6474 147.528 12.6474C147.505 12.6474 147.475 12.6474 147.452 12.6399C147.43 12.6399 147.399 12.6323 147.377 12.6323L137.405 12.6248L134.737 21.205C134.495 21.9157 134.994 22.5733 135.795 22.5733L141.382 22.4826C141.382 22.4826 144.61 22.46 146.485 20.2223L148.45 14.2199C148.465 14.1669 148.48 14.114 148.496 14.0611C148.496 14.046 148.503 14.0309 148.503 14.0157C148.511 13.9779 148.518 13.9401 148.518 13.9099C148.518 13.8872 148.518 13.8721 148.518 13.857C148.518 13.8268 148.526 13.7965 148.526 13.7587C148.526 13.736 148.526 13.7209 148.526 13.6982C148.503 13.6831 148.503 13.6529 148.503 13.6226Z" fill="#FCE900"/>
<path d="M108.338 24.8488H108.346C108.316 24.8488 108.293 24.8488 108.263 24.8412C108.293 24.8412 108.316 24.8488 108.338 24.8488Z" fill="white"/>
<path d="M85.9086 11.0221C84.3815 11.0221 82.8091 11.5211 81.5617 12.3904C80.4278 11.5059 78.9688 11.0221 77.4266 11.0221C73.7299 11.0221 71.2805 12.8516 70.6077 16.2157L68.8992 25.2571C68.6119 26.6859 69.2016 26.9127 69.9047 26.9127C70.0181 26.9127 70.071 26.9127 70.26 26.9127C71.6283 26.9127 72.8605 25.8392 73.2536 24.1382C73.3065 23.9115 74.6673 16.5105 74.6673 16.5105H74.6597C74.8714 15.6184 75.6652 14.7264 77.041 14.6886H77.1091C78.5757 14.6886 79.1426 15.6562 78.9158 17.0094C78.9158 17.0094 77.3812 25.0605 77.3737 25.1739L77.3585 25.2646C77.0713 26.6934 77.6609 26.9202 78.364 26.9202C78.4774 26.9202 78.5303 26.9202 78.7193 26.9202C80.0876 26.9202 81.3198 25.8467 81.7129 24.1458C81.7659 23.919 83.1493 16.4878 83.1493 16.4878C83.3685 15.3916 84.2001 14.6357 85.6062 14.6357C87.7607 14.6357 87.4432 16.3895 87.4432 16.3895L85.7801 25.2798C85.4928 26.7085 86.0825 26.9353 86.7855 26.9353C86.8989 26.9353 86.9443 26.9353 87.1408 26.9353C88.5091 26.9353 89.7414 25.8619 90.1345 24.1609C90.1874 23.9341 91.6313 16.2988 91.6313 16.2988H91.6237C92.0924 13.6907 90.0589 11.0221 85.9086 11.0221Z" fill="white"/>
</g>
<defs>
<clipPath id="clip0">
<path d="M0 0H150V37.723H0V0Z" fill="white"/>
</clipPath>
</defs>
</svg>
